<svg width="171" height="44" viewBox="0 0 171 44" fill="none" xmlns="http://www.w3.org/2000/svg">
<path d="M52.2 24.9517V37.5833H45.9V26.4733C45.9 23.0817 44.037 21.67 42.3 21.67C41.1079 21.6355 39.9511 22.0843 39.0837 22.9179C38.2163 23.7515 37.7093 24.9017 37.674 26.1158C37.665 26.2715 37.665 26.4276 37.674 26.5833V37.5833H31.5V16.5H37.44V19.4792H37.521C38.142 18.1867 40.797 16.0417 44.415 16.0417C48.033 16.0417 52.2 18.535 52.2 24.9517ZM21.6 37.5833H27.9V16.5H21.6V37.5833ZM24.75 5.9125C24.0311 5.92154 23.3308 6.14694 22.7374 6.56033C22.1439 6.97372 21.6837 7.55664 21.4147 8.23576C21.1457 8.91488 21.0799 9.65985 21.2256 10.377C21.3713 11.0941 21.7219 11.7513 22.2335 12.2659C22.745 12.7805 23.3945 13.1296 24.1003 13.2692C24.8061 13.4087 25.5367 13.3326 26.2001 13.0503C26.8635 12.768 27.4301 12.2922 27.8287 11.6827C28.2273 11.0732 28.4399 10.3573 28.44 9.625C28.44 8.65254 28.0607 7.71991 27.3856 7.03228C26.7105 6.34464 25.7948 5.95833 24.84 5.95833L24.75 5.9125ZM171 3.20833V40.7917C171 41.6426 170.668 42.4586 170.077 43.0603C169.487 43.662 168.685 44 167.85 44H130.95C130.115 44 129.313 43.662 128.723 43.0603C128.132 42.4586 127.8 41.6426 127.8 40.7917V3.20833C127.8 2.35743 128.132 1.54138 128.723 0.939699C129.313 0.33802 130.115 0 130.95 0L167.85 0C168.685 0 169.487 0.33802 170.077 0.939699C170.668 1.54138 171 2.35743 171 3.20833V3.20833ZM140.4 16.5H134.1V37.5833H140.4V16.5ZM140.94 9.625C140.949 8.88175 140.741 8.15252 140.343 7.52952C139.945 6.90652 139.374 6.41772 138.704 6.12494C138.033 5.83217 137.292 5.74855 136.575 5.88468C135.857 6.0208 135.195 6.37055 134.673 6.8897C134.151 7.40884 133.791 8.07408 133.64 8.80127C133.489 9.52847 133.553 10.285 133.824 10.9751C134.095 11.6653 134.561 12.2581 135.163 12.6786C135.765 13.0991 136.475 13.3284 137.205 13.3375H137.25C137.723 13.3497 138.193 13.2669 138.635 13.0938C139.076 12.9207 139.48 12.6607 139.822 12.3287C140.165 11.9967 140.44 11.5992 140.632 11.1589C140.824 10.7186 140.928 10.2441 140.94 9.7625V9.625ZM164.7 24.9517C164.7 18.535 160.533 16.0417 156.915 16.0417C153.297 16.0417 150.615 18.1867 150.021 19.4792H149.94V16.5H144V37.5833H150.3V26.5833C150.3 23.2008 152.559 21.6975 154.755 21.6975C156.555 21.6975 158.4 23.1092 158.4 26.5008V37.5833H164.7V24.9517ZM7.2 6.41667H0V37.5833H18.9V31.1667H7.2V6.41667ZM97.2 27.2892V29.1225H81.9C81.9111 29.2586 81.9446 29.3919 81.999 29.5167C82.521 31.2858 84.402 32.78 87.174 32.78C88.0484 32.8247 88.9211 32.6626 89.7236 32.3064C90.5262 31.9501 91.2369 31.4094 91.8 30.7267L96.39 33.6417C95.2717 35.0758 93.8375 36.2215 92.2036 36.986C90.5696 37.7504 88.7818 38.1121 86.985 38.0417C80.946 38.0417 75.6 34.3017 75.6 27.1242C75.6 19.9467 81 16.0417 86.796 16.0417C92.592 16.0417 97.2 19.9925 97.2 27.2892ZM90.9 24.75C90.9 22.55 89.496 20.735 86.625 20.735C83.925 20.735 82.044 22.5683 81.9 24.75H90.9ZM76.734 16.5H69.012L62.226 25.0892H62.1V6.41667H55.8V37.5833H62.1V27.5H62.226L69.174 37.5833H77.067L68.58 26.0608L76.734 16.5ZM115.2 6.41667H121.5V37.5833H115.56V34.8333H115.479C114.687 36.2267 112.563 38.0325 108.819 38.0325C104.319 38.0325 99 34.705 99 27.0325C99 20.13 103.59 16.0783 108.738 16.0783C109.931 16.0606 111.114 16.296 112.213 16.7694C113.311 17.2429 114.301 17.944 115.119 18.8283H115.2V6.41667ZM115.47 27.0325C115.488 26.3415 115.372 25.6536 115.129 25.0082C114.886 24.3628 114.52 23.7726 114.053 23.2712C113.586 22.7697 113.026 22.367 112.406 22.086C111.786 21.805 111.117 21.6512 110.439 21.6333H110.304C108.983 21.6013 107.704 22.1047 106.747 23.0328C105.79 23.9609 105.234 25.238 105.201 26.5833C105.201 26.7208 105.201 26.8492 105.201 26.9867C105.161 27.6608 105.251 28.3364 105.467 28.9749C105.684 29.6134 106.021 30.2022 106.461 30.7078C106.9 31.2135 107.433 31.6259 108.03 31.9217C108.626 32.2175 109.273 32.3908 109.935 32.4317H110.295C111.683 32.4123 113.008 31.8332 113.978 30.8212C114.948 29.8091 115.484 28.4467 115.47 27.0325V27.0325Z" fill="#F2F2F0"/>
</svg>
